<?xml version="1.0" encoding="utf-8"?>
<!-- Generator: Adobe Illustrator 25.4.1, SVG Export Plug-In . SVG Version: 6.00 Build 0)  -->
<svg version="1.1" id="Capa_1" xmlns="http://www.w3.org/2000/svg" xmlns:xlink="http://www.w3.org/1999/xlink" x="0px" y="0px"
	 viewBox="0 0 1080 1080" style="enable-background:new 0 0 1080 1080;" xml:space="preserve">
<style type="text/css">
	.st0{fill:#623CEA;}
	.st1{fill:#2EFF87;}
	.st2{fill:#FFFFFF;}
</style>
<g>
	<path class="st0" d="M857.74,1080H222.26C99.51,1080,0,980.49,0,857.74V222.26C0,99.51,99.51,0,222.26,0h635.48
		C980.49,0,1080,99.51,1080,222.26v635.48C1080,980.49,980.49,1080,857.74,1080z"/>
</g>
<g>
	<path class="st1" d="M280.64,453.55L280.64,453.55c0,95.49,77.41,172.91,172.91,172.91h0V453.55H280.64z"/>
	<path class="st1" d="M453.55,799.36L453.55,799.36c95.49,0,172.91-77.41,172.91-172.91v0H453.55V799.36z"/>
	<g>
		<path class="st2" d="M453.55,453.55v172.91h172.91h0c95.49,0,172.91-77.41,172.91-172.91v0v0c0-95.49-77.41-172.91-172.91-172.91
			h0h0C530.96,280.64,453.55,358.05,453.55,453.55z"/>
	</g>
</g>
</svg>
